<svg xmlns="http://www.w3.org/2000/svg" viewBox="0 0 1600 900" role="img" aria-labelledby="title desc">
  <title id="title">Документы для бизнеса — V0.4 slide section template</title>
  <desc id="desc">Разделительный слайд 16:9 для внутренней презентации: короткий stage title, route ribbon and calm dark surface.</desc>
  <metadata>status: V0.4 REVIEW / INTERNAL DRAFT; public use requires separate owner, design and rights review.</metadata>
  <defs>
    <linearGradient id="bg" x1="0" y1="0" x2="1" y2="1">
      <stop offset="0" stop-color="#0B0F14"/>
      <stop offset="0.62" stop-color="#111318"/>
      <stop offset="1" stop-color="#2A2D34"/>
    </linearGradient>
    <pattern id="grid" width="72" height="72" patternUnits="userSpaceOnUse">
      <path d="M72 0H0V72" fill="none" stroke="#F2F2F2" stroke-opacity="0.055" stroke-width="1"/>
    </pattern>
  </defs>
  <rect width="1600" height="900" fill="url(#bg)"/>
  <rect width="1600" height="900" fill="url(#grid)"/>
  <path d="M-80 640C180 500 324 674 548 536C758 406 1000 390 1218 504C1380 590 1490 574 1680 432" fill="none" stroke="#7B61FF" stroke-opacity="0.20" stroke-width="44" stroke-linecap="round"/>
  <path d="M-80 658C184 516 326 692 552 554C764 424 1006 410 1222 522C1384 606 1494 592 1680 450" fill="none" stroke="#C6FF00" stroke-opacity="0.76" stroke-width="9" stroke-linecap="round"/>
  <g font-family="Inter, Segoe UI, system-ui, -apple-system, BlinkMacSystemFont, Arial, sans-serif">
    <text x="104" y="132" font-size="22" font-weight="800" letter-spacing="5" fill="#C6FF00">SECTION / INTERNAL REVIEW</text>
    <text x="104" y="318" font-size="92" font-weight="780" fill="#F2F2F2">Сначала система</text>
    <text x="104" y="424" font-size="92" font-weight="780" fill="#F2F2F2">потом материал</text>
    <text x="104" y="506" font-size="30" fill="#DDE3EA">Сетка, роли, токены и render-proof удерживают стиль от случайности.</text>
    <rect x="104" y="638" width="360" height="76" rx="12" fill="#F2F2F2" fill-opacity="0.08" stroke="#F2F2F2" stroke-opacity="0.18"/>
    <text x="132" y="686" font-size="24" font-weight="760" fill="#F2F2F2">Stage 01–05 V0.4</text>
    <circle cx="1350" cy="172" r="26" fill="#C6FF00"/>
    <circle cx="1422" cy="172" r="26" fill="#245DA7"/>
    <circle cx="1494" cy="172" r="26" fill="#7B61FF"/>
  </g>
</svg>
