<svg xmlns="http://www.w3.org/2000/svg" width="192" height="192" viewBox="0 0 96 96"><defs><linearGradient id="paper" x1="0" y1="0" x2="1" y2="1"><stop stop-color="#FFFFFF"/><stop offset="1" stop-color="#E8F2F7"/></linearGradient><linearGradient id="navy" x1="0" y1="0" x2="1" y2="1"><stop stop-color="#345B7B"/><stop offset="1" stop-color="#0B2440"/></linearGradient><linearGradient id="navy2" x1="0" y1="0" x2=".7" y2="1"><stop stop-color="#426F90"/><stop offset="1" stop-color="#122F4B"/></linearGradient><linearGradient id="teal" x1="0" y1="0" x2="1" y2="1"><stop stop-color="#39CCD1"/><stop offset="1" stop-color="#0B899C"/></linearGradient><filter id="s" x="-30%" y="-25%" width="170%" height="170%"><feDropShadow dx="0" dy="3" stdDeviation="2" flood-color="#0B2440" flood-opacity=".13"/></filter></defs><ellipse cx="49" cy="86" rx="32" ry="4" fill="#C8DBE5" opacity=".42"/><g filter="url(#s)"><rect x="34" y="14" width="44" height="65" rx="6" fill="#D4E6F0" stroke="#BDD5E3" transform="rotate(7 56 46)"/><rect x="24" y="12" width="45" height="65" rx="6" fill="#EDF6FB" stroke="#C5DAE6"/><path d="M23 19h26l13 13v47H23a6 6 0 0 1-6-6V25a6 6 0 0 1 6-6Z" fill="url(#paper)" stroke="#BBD3E0"/><path d="M49 19v10a4 4 0 0 0 4 4h9" fill="url(#teal)"/><path d="M27 42h22M27 51h17M27 60h20" stroke="#B5CDD9" stroke-width="3.5" stroke-linecap="round"/><rect x="12" y="65" width="54" height="14" rx="5" fill="url(#navy)"/><rect x="48" y="62" width="36" height="25" rx="10" fill="url(#teal)" stroke="#1098A6"/><path d="M57 74h18m-6-5 6 5-6 5" fill="none" stroke="white" stroke-width="3" stroke-linecap="round" stroke-linejoin="round"/></g></svg>