<svg width="1800" height="1400" viewBox="0 0 1800 1400" fill="none" xmlns="http://www.w3.org/2000/svg" role="img" aria-labelledby="title desc">
  <title id="title">Matrix specimen board V0.2</title>
  <desc id="desc">Internal review board for Документы для бизнеса visual matrix: palette, typography, backgrounds, UI fragments and format skeletons.</desc>
  <defs>
    <linearGradient id="depth" x1="84" y1="80" x2="1716" y2="1320" gradientUnits="userSpaceOnUse">
      <stop stop-color="#0B0F14"/>
      <stop offset="0.58" stop-color="#111318"/>
      <stop offset="1" stop-color="#33215F"/>
    </linearGradient>
    <linearGradient id="paper" x1="0" y1="0" x2="0" y2="1">
      <stop stop-color="#FBFAF6"/>
      <stop offset="1" stop-color="#F7F3EA"/>
    </linearGradient>
    <linearGradient id="routeAccent" x1="0" y1="0" x2="1" y2="0">
      <stop stop-color="#245DA7"/>
      <stop offset="1" stop-color="#C6FF00"/>
    </linearGradient>
    <pattern id="grid" width="40" height="40" patternUnits="userSpaceOnUse">
      <path d="M40 0H0V40" stroke="#DDE3EA" stroke-width="1"/>
    </pattern>
    <filter id="softShadow" x="-20%" y="-20%" width="140%" height="140%">
      <feDropShadow dx="0" dy="18" stdDeviation="18" flood-color="#111318" flood-opacity="0.16"/>
    </filter>
    <style>
      .sans { font-family: Inter, "Segoe UI", Arial, sans-serif; }
      .label { font-size: 14px; font-weight: 700; letter-spacing: 0.04em; text-transform: uppercase; }
      .caption { font-size: 15px; font-weight: 500; }
      .small { font-size: 13px; font-weight: 500; }
      .title { font-size: 42px; font-weight: 760; letter-spacing: 0; }
      .headline { font-size: 30px; font-weight: 720; letter-spacing: 0; }
      .body { font-size: 18px; font-weight: 500; letter-spacing: 0; }
    </style>
  </defs>

  <rect width="1800" height="1400" fill="url(#depth)"/>
  <rect x="0" y="0" width="1800" height="1400" fill="url(#grid)" opacity="0.12"/>
  <path d="M-80 960C210 800 320 1040 590 860C855 684 1000 706 1250 560C1460 438 1600 360 1880 410" stroke="#7B61FF" stroke-width="34" stroke-linecap="round" opacity="0.18"/>
  <path d="M-60 982C240 820 330 1060 608 884C870 718 1014 728 1262 590C1480 468 1608 392 1870 436" stroke="#C6FF00" stroke-width="8" stroke-linecap="round" opacity="0.82"/>

  <rect x="44" y="44" width="1712" height="1312" rx="28" fill="#0B0F14" fill-opacity="0.72" stroke="#3A3F48"/>

  <text x="84" y="106" class="sans label" fill="#C6FF00">REVIEW SPECIMEN BOARD · NOT APPROVED FOR PUBLIC USE</text>
  <text x="84" y="162" class="sans title" fill="#F2F2F2">Деловая ясность с управляемым световым акцентом</text>
  <text x="84" y="200" class="sans body" fill="#DDE3EA">Спокойный маршрут через документы: ситуация → разбор → комплект → следующий шаг</text>

  <g transform="translate(84 250)">
    <text class="sans label" fill="#DDE3EA">01 Palette roles</text>
    <g transform="translate(0 28)">
      <rect width="116" height="92" rx="12" fill="#0B0F14" stroke="#3A3F48"/>
      <rect x="132" width="116" height="92" rx="12" fill="#111318" stroke="#3A3F48"/>
      <rect x="264" width="116" height="92" rx="12" fill="#2A2D34"/>
      <rect x="396" width="116" height="92" rx="12" fill="#F7F3EA"/>
      <rect x="528" width="116" height="92" rx="12" fill="#FBFAF6"/>
      <rect x="660" width="116" height="92" rx="12" fill="#C6FF00"/>
      <rect x="792" width="116" height="92" rx="12" fill="#33215F"/>
      <rect x="924" width="116" height="92" rx="12" fill="#245DA7"/>
      <rect x="1056" width="116" height="92" rx="12" fill="#C69A47"/>
      <rect x="1188" width="116" height="92" rx="12" fill="#6C2537"/>
      <text x="0" y="122" class="sans small" fill="#DDE3EA">dark base</text>
      <text x="660" y="122" class="sans small" fill="#C6FF00">signal</text>
      <text x="792" y="122" class="sans small" fill="#DDE3EA">depth</text>
      <text x="1056" y="122" class="sans small" fill="#DDE3EA">local/trust</text>
    </g>
  </g>

  <g transform="translate(84 430)">
    <text class="sans label" fill="#DDE3EA">02 Typography roles</text>
    <rect y="28" width="520" height="238" rx="16" fill="#FBFAF6" filter="url(#softShadow)"/>
    <text x="28" y="86" class="sans title" fill="#111821">Display / headline</text>
    <text x="28" y="132" class="sans headline" fill="#111821">Сначала разбираем ситуацию</text>
    <text x="28" y="178" class="sans body" fill="#111821">Body text stays calm, readable and rational.</text>
    <rect x="28" y="202" width="216" height="44" rx="8" fill="#245DA7"/>
    <text x="48" y="230" class="sans caption" fill="#FFFFFF">Разобрать ситуацию</text>
    <text x="268" y="229" class="sans small" fill="#667184">Caption: restricted size/color</text>
  </g>

  <g transform="translate(648 430)">
    <text class="sans label" fill="#DDE3EA">03 Background families</text>
    <g transform="translate(0 28)">
      <rect width="240" height="120" rx="16" fill="url(#paper)" stroke="#DDE3EA"/>
      <rect x="18" y="18" width="204" height="84" rx="10" fill="url(#grid)" opacity="0.42"/>
      <text x="20" y="148" class="sans small" fill="#DDE3EA">light matrix paper</text>

      <rect x="280" width="240" height="120" rx="16" fill="#111318" stroke="#3A3F48"/>
      <path d="M306 84C354 30 408 98 456 46C482 18 498 20 508 16" stroke="#7B61FF" stroke-width="11" stroke-linecap="round" opacity="0.38"/>
      <path d="M306 84C354 30 408 98 456 46C482 18 498 20 508 16" stroke="#C6FF00" stroke-width="3" stroke-linecap="round"/>
      <text x="300" y="148" class="sans small" fill="#DDE3EA">route ribbon</text>

      <rect x="560" width="240" height="120" rx="16" fill="#2A2D34"/>
      <rect x="590" y="24" width="88" height="72" rx="10" fill="#F2F2F2" opacity="0.86"/>
      <rect x="704" y="24" width="70" height="72" rx="10" fill="#DDE3EA" opacity="0.64"/>
      <text x="580" y="148" class="sans small" fill="#DDE3EA">document geometry</text>

      <rect x="840" width="240" height="120" rx="16" fill="#0B0F14"/>
      <rect x="870" y="30" width="180" height="54" rx="10" fill="#C6FF00"/>
      <text x="900" y="64" class="sans caption" fill="#111318">signal CTA</text>
      <text x="860" y="148" class="sans small" fill="#DDE3EA">dark business surface</text>
    </g>
  </g>

  <g transform="translate(84 760)">
    <text class="sans label" fill="#DDE3EA">04 UI fragments</text>
    <rect y="30" width="530" height="250" rx="18" fill="#F7F3EA" stroke="#DDE3EA"/>
    <text x="28" y="84" class="sans headline" fill="#111821">Hero skeleton</text>
    <text x="28" y="122" class="sans body" fill="#667184">One route cue, one CTA, one contour.</text>
    <rect x="28" y="158" width="210" height="50" rx="8" fill="#162844"/>
    <text x="52" y="190" class="sans caption" fill="#FFFFFF">Разобрать ситуацию</text>
    <path d="M315 178C360 125 420 222 485 142" stroke="#245DA7" stroke-width="8" stroke-linecap="round"/>
    <circle cx="315" cy="178" r="12" fill="#C6FF00"/>
    <circle cx="485" cy="142" r="12" fill="#C6FF00"/>

    <rect x="570" y="30" width="300" height="250" rx="18" fill="#FBFAF6" stroke="#DDE3EA"/>
    <rect x="594" y="58" width="138" height="28" rx="8" fill="#DDE3EA"/>
    <rect x="594" y="108" width="226" height="16" rx="8" fill="#111821"/>
    <rect x="594" y="138" width="210" height="10" rx="5" fill="#667184"/>
    <rect x="594" y="166" width="130" height="38" rx="8" fill="#245DA7"/>
    <text x="594" y="236" class="sans small" fill="#667184">service card skeleton</text>

    <rect x="910" y="30" width="394" height="250" rx="18" fill="#111318" stroke="#3A3F48"/>
    <text x="940" y="84" class="sans headline" fill="#F2F2F2">CTA block</text>
    <text x="940" y="124" class="sans body" fill="#DDE3EA">No pressure. Safe first step.</text>
    <rect x="940" y="160" width="210" height="52" rx="8" fill="#C6FF00"/>
    <text x="968" y="193" class="sans caption" fill="#111318">Понять следующий шаг</text>
    <rect x="1164" y="160" width="96" height="52" rx="8" fill="#2A2D34" stroke="#3A3F48"/>
  </g>

  <g transform="translate(84 1110)">
    <text class="sans label" fill="#DDE3EA">05 Format skeletons</text>
    <rect y="30" width="150" height="150" rx="16" fill="#111318" stroke="#3A3F48"/>
    <rect x="20" y="52" width="90" height="14" rx="7" fill="#F2F2F2"/>
    <rect x="20" y="78" width="70" height="10" rx="5" fill="#DDE3EA"/>
    <rect x="20" y="132" width="74" height="24" rx="6" fill="#C6FF00"/>
    <text x="0" y="206" class="sans small" fill="#DDE3EA">square</text>

    <rect x="190" y="30" width="95" height="170" rx="16" fill="#2A2D34" stroke="#3A3F48"/>
    <rect x="208" y="62" width="54" height="12" rx="6" fill="#F2F2F2"/>
    <rect x="208" y="150" width="58" height="24" rx="6" fill="#C6FF00"/>
    <text x="190" y="226" class="sans small" fill="#DDE3EA">story</text>

    <rect x="330" y="30" width="280" height="110" rx="16" fill="#FBFAF6" stroke="#DDE3EA"/>
    <rect x="354" y="64" width="128" height="18" rx="9" fill="#111821"/>
    <rect x="354" y="98" width="82" height="22" rx="6" fill="#245DA7"/>
    <circle cx="562" cy="84" r="18" fill="#C6FF00"/>
    <text x="330" y="166" class="sans small" fill="#DDE3EA">horizontal</text>

    <rect x="650" y="30" width="320" height="150" rx="16" fill="#0B0F14" stroke="#3A3F48"/>
    <rect x="684" y="72" width="170" height="22" rx="11" fill="#F2F2F2"/>
    <rect x="684" y="112" width="120" height="30" rx="8" fill="#C6FF00"/>
    <text x="650" y="206" class="sans small" fill="#DDE3EA">outdoor</text>

    <rect x="1010" y="30" width="230" height="130" rx="16" fill="#33215F" stroke="#3A3F48"/>
    <rect x="1036" y="70" width="132" height="18" rx="9" fill="#F2F2F2"/>
    <rect x="1036" y="104" width="88" height="10" rx="5" fill="#DDE3EA"/>
    <text x="1010" y="186" class="sans small" fill="#DDE3EA">slide cover</text>

    <rect x="1280" y="30" width="150" height="200" rx="10" fill="#FBFAF6" stroke="#DDE3EA"/>
    <rect x="1300" y="58" width="92" height="12" rx="6" fill="#111821"/>
    <rect x="1300" y="90" width="108" height="8" rx="4" fill="#667184"/>
    <rect x="1300" y="112" width="96" height="8" rx="4" fill="#667184"/>
    <rect x="1300" y="154" width="58" height="18" rx="6" fill="#245DA7"/>
    <text x="1280" y="256" class="sans small" fill="#DDE3EA">A4</text>
  </g>

  <g transform="translate(1240 250)">
    <rect width="390" height="142" rx="16" fill="#111318" stroke="#3A3F48"/>
    <text x="24" y="48" class="sans label" fill="#C6FF00">Rules</text>
    <text x="24" y="82" class="sans caption" fill="#F2F2F2">1 meaning · 1 CTA · 1 contour</text>
    <text x="24" y="112" class="sans small" fill="#DDE3EA">Lime is signal. Violet is depth. Gold is not authority.</text>
  </g>

  <g transform="translate(1240 430)">
    <rect width="390" height="238" rx="16" fill="#FBFAF6" stroke="#DDE3EA"/>
    <text x="24" y="46" class="sans label" fill="#245DA7">Forbidden pair examples</text>
    <rect x="24" y="72" width="146" height="52" rx="10" fill="#C6FF00"/>
    <text x="44" y="105" class="sans caption" fill="#FFFFFF">white on lime</text>
    <text x="184" y="104" class="sans small" fill="#111821">FAIL for text</text>
    <rect x="24" y="148" width="146" height="52" rx="10" fill="#7B61FF"/>
    <text x="44" y="181" class="sans caption" fill="#FFFFFF">small body</text>
    <text x="184" y="180" class="sans small" fill="#111821">large only</text>
  </g>
</svg>
